<?xml version="1.0" encoding="UTF-8" standalone="no"?>
<!DOCTYPE svg PUBLIC "-//W3C//DTD SVG 20010904//EN"
              "http://www.w3.org/TR/2001/REC-SVG-20010904/DTD/svg10.dtd">

<svg xmlns="http://www.w3.org/2000/svg"
     width="4.23611in" height="5.86111in"
     viewBox="0 0 305 422">
  <path id="Auswahl"
        fill="none" stroke="black" stroke-width="1"
        d="M 166.00,283.00
           C 167.28,288.76 166.72,289.65 167.09,295.00
             167.72,304.13 168.61,317.51 171.61,326.00
             173.93,332.57 180.57,337.97 184.45,344.00
             188.09,349.65 191.10,359.40 194.00,366.00
             195.42,369.22 196.45,371.18 198.68,373.96
             204.03,380.65 211.74,386.00 205.15,395.94
             200.67,402.71 192.20,401.40 187.21,395.94
             177.69,385.55 176.20,364.42 162.00,359.18
             162.00,359.18 151.00,355.96 151.00,355.96
             142.40,353.33 132.43,348.30 125.00,343.25
             115.24,336.63 100.87,323.22 93.51,314.00
             93.51,314.00 73.83,289.01 73.83,289.01
             73.83,289.01 50.17,267.00 50.17,267.00
             39.43,255.09 25.76,232.81 22.51,217.00
             21.47,211.94 20.94,195.69 21.00,190.00
             21.17,175.81 25.48,161.36 32.31,149.00
             32.31,149.00 44.74,129.00 44.74,129.00
             51.09,115.76 47.47,105.48 51.35,96.00
             57.10,81.95 76.69,72.39 89.00,64.30
             94.77,60.52 99.21,56.62 101.73,50.00
             104.64,42.37 102.39,35.94 112.17,29.14
             118.54,24.72 129.48,22.97 132.66,32.02
             134.88,38.34 133.34,42.20 130.85,48.00
             123.71,64.63 110.47,71.99 108.00,85.00
             113.75,84.75 126.74,85.52 131.00,84.04
             143.75,79.60 148.51,70.37 164.00,70.01
             164.00,70.01 184.00,70.91 184.00,70.91
             184.00,70.91 203.00,67.62 203.00,67.62
             205.68,67.40 209.21,67.52 209.29,71.11
             209.41,75.72 202.27,81.09 202.14,85.00
             202.09,86.62 205.90,93.79 206.85,96.00
             211.58,107.02 208.55,104.79 212.00,114.00
             226.03,109.33 219.41,111.22 231.00,104.90
             231.00,104.90 239.00,100.87 239.00,100.87
             239.00,100.87 247.00,94.73 247.00,94.73
             248.37,93.90 261.22,90.35 263.00,90.20
             266.31,89.92 275.46,93.54 277.40,96.14
             278.80,98.02 278.67,99.45 278.95,101.58
             279.87,108.42 280.04,110.08 273.00,113.00
             273.34,117.49 271.35,119.29 267.00,120.50
             267.00,120.50 257.00,121.32 257.00,121.32
             252.00,122.16 245.21,124.94 241.00,127.75
             222.69,139.97 214.18,153.24 204.00,160.57
             191.02,169.92 184.36,170.52 171.00,176.54
             171.00,176.54 148.00,189.00 148.00,189.00
             153.16,194.39 164.56,196.24 172.00,198.75
             178.24,200.85 187.74,206.48 193.00,210.50
             204.10,218.98 210.81,228.93 215.56,242.00
             217.90,248.43 220.55,264.73 226.19,267.98
             228.40,269.25 232.45,269.03 235.00,269.00
             235.00,269.00 259.00,265.43 259.00,265.43
             268.01,266.66 271.55,278.43 261.83,284.77
             256.91,287.99 252.97,286.26 248.00,287.63
             248.00,287.63 241.00,290.31 241.00,290.31
             236.04,292.10 219.71,297.05 215.00,297.52
             204.02,298.62 201.16,285.85 193.99,282.17
             188.06,279.13 172.84,282.27 166.00,283.00 Z" />
</svg>
