<?xml version="1.0" encoding="UTF-8" standalone="no"?>
<!DOCTYPE svg PUBLIC "-//W3C//DTD SVG 20010904//EN"
              "http://www.w3.org/TR/2001/REC-SVG-20010904/DTD/svg10.dtd">

<svg xmlns="http://www.w3.org/2000/svg"
     width="4.86111in" height="5.38889in"
     viewBox="0 0 350 388">
  <path id="Auswahl"
        fill="none" stroke="black" stroke-width="1"
        d="M 126.00,45.00
           C 135.30,45.21 136.50,47.88 146.00,48.00
             164.26,48.21 162.73,49.16 180.00,43.10
             191.56,39.04 187.17,22.17 200.00,25.64
             208.00,27.81 209.87,33.73 215.29,38.47
             218.27,41.08 226.90,44.70 231.00,46.75
             247.94,55.25 256.71,66.04 267.73,81.00
             267.73,81.00 279.66,97.00 279.66,97.00
             289.72,112.46 301.56,139.26 300.39,158.00
             300.13,162.29 298.67,166.49 296.06,169.91
             293.08,173.82 290.15,174.77 289.11,180.00
             289.11,180.00 286.71,207.00 286.71,207.00
             284.88,218.83 279.66,232.73 273.55,243.00
             267.27,253.55 255.18,268.66 246.00,276.71
             246.00,276.71 226.54,292.12 226.54,292.12
             225.30,293.64 224.72,295.05 225.91,296.80
             227.09,298.53 234.08,302.43 240.12,311.00
             250.47,325.68 250.16,341.76 241.13,356.99
             237.71,362.75 231.10,370.08 224.00,370.00
             220.51,374.99 215.56,375.17 210.00,376.08
             199.77,377.76 178.03,377.44 168.17,374.61
             164.12,373.45 157.84,374.29 155.00,371.00
             149.84,372.77 144.38,372.39 139.00,373.28
             131.14,374.59 124.10,377.24 116.00,375.25
             103.28,372.13 102.06,361.41 109.39,352.00
             123.92,333.36 152.63,332.85 174.04,334.88
             174.04,334.88 186.00,334.88 186.00,334.88
             186.00,334.88 163.58,318.91 163.58,318.91
             159.86,315.99 153.53,308.98 150.17,307.50
             150.17,307.50 138.00,305.62 138.00,305.62
             132.69,304.24 121.99,299.23 117.04,296.58
             104.20,289.69 93.09,280.87 83.42,269.91
             83.42,269.91 72.53,255.30 72.53,255.30
             68.41,251.34 64.91,253.34 57.52,244.00
             45.74,229.12 41.15,213.45 32.12,198.00
             27.55,190.16 21.75,187.38 21.33,182.00
             21.11,179.10 22.78,176.70 23.51,174.00
             24.53,170.22 24.00,166.46 27.39,163.35
             31.78,159.32 44.77,163.89 48.99,166.94
             56.10,172.09 65.81,193.28 70.00,202.00
             77.64,198.94 87.66,193.24 95.00,191.67
             103.60,189.83 106.24,192.90 114.00,190.30
             119.90,188.34 126.41,189.82 127.66,185.94
             128.93,182.03 119.69,177.68 117.00,176.13
             112.93,173.79 110.63,171.90 106.00,170.25
             99.19,167.82 97.39,170.29 91.08,163.91
             85.76,158.49 83.43,149.77 91.08,145.09
             94.51,142.96 99.06,142.91 103.00,143.02
             113.39,143.30 115.91,149.65 123.00,150.92
             127.77,151.77 137.22,149.08 140.58,145.61
             144.39,141.69 148.86,126.57 149.00,121.00
             142.18,122.60 140.60,120.93 134.00,120.00
             136.86,115.00 139.83,115.50 145.00,114.00
             145.00,114.00 142.13,112.00 142.13,112.00
             145.53,109.35 143.16,107.68 142.13,104.00
             141.22,99.76 141.01,95.34 141.00,91.00
             141.00,91.00 142.11,69.00 142.11,69.00
             139.30,60.95 128.59,55.48 126.00,45.00 Z" />
</svg>
