<?xml version="1.0" encoding="UTF-8" standalone="no"?>
<!DOCTYPE svg PUBLIC "-//W3C//DTD SVG 20010904//EN"
              "http://www.w3.org/TR/2001/REC-SVG-20010904/DTD/svg10.dtd">

<svg xmlns="http://www.w3.org/2000/svg"
     width="4.11111in" height="7.51389in"
     viewBox="0 0 296 541">
  <path id="Auswahl"
        fill="none" stroke="black" stroke-width="1"
        d="M 109.00,119.00
           C 115.90,115.36 125.03,107.71 127.35,100.00
             128.33,96.76 127.98,88.77 128.00,85.00
             128.03,79.81 128.20,77.95 130.06,73.00
             131.23,69.91 133.50,66.24 133.47,63.00
             133.42,58.68 128.84,45.46 129.00,32.00
             129.03,29.99 129.05,27.97 129.53,26.00
             133.36,10.46 149.35,25.27 154.72,30.96
             156.53,32.88 157.60,34.21 160.04,35.43
             163.45,37.13 167.30,36.99 171.00,37.00
             176.90,37.01 188.93,37.65 194.00,35.66
             198.67,33.82 204.27,28.39 208.04,24.95
             210.45,22.74 217.93,15.34 221.44,17.81
             223.63,19.35 224.00,24.54 223.90,27.00
             223.90,27.00 221.10,51.00 221.10,51.00
             221.63,58.69 226.11,62.54 228.80,69.00
             231.11,74.53 231.06,79.16 231.00,85.00
             230.81,101.16 220.80,109.74 221.00,128.00
             221.09,135.80 223.45,143.40 225.00,151.00
             227.55,163.53 230.06,178.27 230.00,191.00
             229.93,206.53 225.52,216.01 225.09,223.00
             224.56,231.79 230.62,241.50 238.00,245.93
             243.25,249.08 249.04,249.55 251.91,256.02
             254.26,261.29 252.70,268.01 246.98,270.26
             244.78,271.13 241.39,271.00 239.00,271.00
             239.00,271.00 227.00,271.00 227.00,271.00
             218.86,270.99 210.81,269.26 203.00,267.00
             203.00,267.00 200.70,288.00 200.70,288.00
             200.70,288.00 195.11,313.00 195.11,313.00
             195.11,313.00 199.00,334.00 199.00,334.00
             200.02,331.86 201.17,329.01 202.65,327.21
             208.02,320.65 219.63,316.69 225.16,325.04
             227.62,328.75 229.60,336.57 228.61,341.00
             227.31,346.77 223.34,348.08 221.51,356.00
             221.51,356.00 219.73,368.00 219.73,368.00
             218.39,376.66 216.03,386.87 212.80,395.00
             211.14,399.17 207.79,406.56 203.82,408.95
             200.31,410.82 194.79,409.70 191.00,408.95
             184.53,408.02 176.38,406.51 170.00,408.00
             171.05,412.73 170.06,419.69 170.00,425.00
             169.76,445.47 157.12,470.05 139.00,480.10
             127.37,486.54 102.43,489.84 89.00,490.00
             89.00,490.00 68.00,490.00 68.00,490.00
             63.52,489.99 58.07,489.86 54.02,487.70
             47.99,484.48 47.96,478.76 53.11,474.64
             57.02,471.50 64.11,469.72 69.00,468.66
             81.62,465.93 94.83,466.39 107.00,461.55
             119.38,456.63 130.16,445.70 131.82,432.00
             132.33,427.80 131.82,424.13 131.28,420.00
             130.71,415.64 130.38,403.46 124.94,402.90
             122.14,402.62 115.81,404.44 113.00,405.34
             102.21,408.80 93.02,413.83 85.04,422.01
             80.37,426.80 77.02,434.47 71.00,436.35
             62.27,439.08 53.17,433.63 54.11,424.00
             54.83,416.56 64.85,410.16 71.00,407.00
             67.00,403.00 62.47,399.05 59.82,394.00
             50.95,377.09 57.88,354.68 66.31,339.00
             68.85,334.27 77.20,320.81 78.20,317.00
             79.24,313.03 77.77,306.17 77.08,302.00
             77.08,302.00 74.04,276.00 74.04,276.00
             74.04,276.00 75.00,265.00 75.00,265.00
             75.00,265.00 75.00,256.00 75.00,256.00
             75.57,249.02 77.52,238.75 79.43,232.00
             81.09,226.12 87.15,212.37 87.21,208.00
             87.30,201.69 81.42,194.49 79.26,183.00
             79.26,183.00 74.92,128.00 74.92,128.00
             74.92,128.00 70.06,102.00 70.06,102.00
             68.67,97.17 65.30,93.32 65.28,88.00
             65.26,84.41 67.04,82.25 68.17,79.00
             68.17,79.00 70.31,72.04 70.31,72.04
             73.55,65.82 81.88,60.85 89.00,62.58
             94.79,63.98 100.41,71.21 103.53,76.00
             107.79,82.54 104.59,86.19 104.57,93.00
             104.55,98.90 107.29,113.09 109.00,119.00 Z" />
</svg>
