<?xml version="1.0" encoding="UTF-8" standalone="no"?>
<!DOCTYPE svg PUBLIC "-//W3C//DTD SVG 20010904//EN"
              "http://www.w3.org/TR/2001/REC-SVG-20010904/DTD/svg10.dtd">

<svg xmlns="http://www.w3.org/2000/svg"
     width="5.45833in" height="6.45833in"
     viewBox="0 0 393 465">
  <path id="Auswahl"
        fill="none" stroke="black" stroke-width="1"
        d="M 136.00,47.00
           C 146.79,44.46 155.02,55.56 164.00,54.14
             164.00,54.14 185.00,47.57 185.00,47.57
             187.01,46.61 188.29,45.55 189.82,43.94
             196.48,36.95 200.81,18.50 211.98,22.74
             216.42,24.43 218.01,28.99 219.72,33.00
             224.86,45.10 222.39,45.84 229.47,59.00
             242.42,83.05 244.10,103.72 253.37,122.00
             257.82,130.77 265.81,138.35 272.00,146.00
             275.64,150.51 283.64,160.34 288.00,163.43
             294.00,167.69 300.73,163.83 307.00,161.66
             319.04,157.48 339.01,147.22 352.00,148.12
             354.77,148.31 356.43,149.06 359.00,149.80
             362.83,150.90 368.81,151.41 370.94,155.21
             371.97,157.04 371.49,159.01 372.49,162.00
             373.46,164.89 375.01,166.64 374.34,170.00
             373.31,175.14 365.37,183.08 360.00,183.37
             356.10,183.59 353.78,181.74 349.00,182.20
             331.61,183.85 322.06,200.37 310.07,210.79
             301.25,218.46 295.38,222.49 284.00,225.86
             278.85,227.38 268.77,228.21 266.01,233.13
             264.54,235.79 265.98,243.36 266.01,247.00
             266.01,247.00 266.01,274.00 266.01,274.00
             266.01,274.00 264.53,296.00 264.53,296.00
             264.53,296.00 273.22,316.00 273.22,316.00
             277.49,325.69 282.87,342.47 283.00,353.00
             283.09,361.06 283.37,369.60 279.62,377.00
             275.54,385.06 270.44,384.63 270.10,388.21
             269.80,391.51 274.81,396.23 277.04,398.28
             277.04,398.28 285.00,405.24 285.00,405.24
             290.27,409.16 297.71,411.69 298.79,419.00
             300.09,427.84 296.69,432.99 288.00,434.27
             282.49,435.08 279.92,435.39 275.42,431.47
             275.42,431.47 260.00,415.09 260.00,415.09
             252.19,407.73 243.42,401.38 236.62,393.00
             234.67,390.59 232.59,388.00 231.65,385.00
             230.53,381.45 231.73,378.51 228.69,375.99
             228.69,375.99 210.00,368.19 210.00,368.19
             210.00,368.19 197.01,361.33 197.01,361.33
             194.83,360.10 192.35,358.04 189.83,357.95
             187.29,357.86 181.55,360.22 179.00,361.19
             171.90,363.88 158.20,365.40 154.41,372.02
             149.62,380.40 148.05,399.82 138.00,402.57
             129.83,404.81 119.50,399.82 118.21,391.00
             117.49,386.02 119.74,381.66 121.00,377.00
             111.74,376.16 105.58,371.62 101.88,363.00
             100.51,359.82 99.92,354.37 98.26,352.51
             95.98,349.95 86.51,349.15 83.00,349.04
             70.57,348.65 54.74,355.60 52.33,369.00
             51.96,371.05 51.38,377.97 51.51,380.00
             51.82,384.90 52.83,389.81 48.72,393.69
             44.38,397.79 37.96,395.49 34.21,391.79
             27.18,384.86 25.99,374.29 26.00,365.00
             26.04,337.57 47.17,322.40 72.00,317.74
             78.59,316.50 78.72,315.85 86.00,316.01
             91.11,316.13 104.17,319.67 107.79,317.22
             110.08,315.68 113.24,309.63 115.03,307.00
             118.38,302.08 122.49,297.86 124.04,292.00
             124.04,292.00 124.04,268.00 124.04,268.00
             124.04,268.00 126.09,241.00 126.09,241.00
             126.90,229.93 129.96,226.06 130.00,213.00
             124.76,211.95 123.64,210.72 119.00,208.55
             119.00,208.55 110.00,204.61 110.00,204.61
             99.84,199.33 88.91,188.24 80.91,179.96
             72.26,171.01 63.22,161.90 50.00,160.85
             41.25,160.56 35.33,165.29 27.17,160.85
             16.91,154.71 18.66,151.38 19.31,143.00
             19.58,139.47 19.65,135.26 22.43,132.65
             26.07,129.23 30.80,130.58 33.83,129.41
             36.61,128.33 37.46,126.20 41.01,125.31
             46.09,124.05 54.92,126.61 60.00,128.01
             60.00,128.01 97.00,141.53 97.00,141.53
             103.92,144.08 111.59,146.89 119.00,144.50
             122.51,143.37 125.18,140.70 128.00,138.45
             133.62,133.95 140.87,128.82 141.00,121.00
             141.00,121.00 140.00,121.00 140.00,121.00
             140.00,121.00 139.00,123.00 139.00,123.00
             139.00,123.00 133.00,124.00 133.00,124.00
             133.00,124.00 135.00,119.00 135.00,119.00
             125.38,118.11 131.10,118.36 122.00,121.00
             125.45,116.93 130.61,112.76 136.00,112.00
             134.09,106.96 136.25,105.95 137.23,101.00
             137.23,101.00 138.76,90.00 138.76,90.00
             140.57,82.93 143.58,77.71 141.00,70.00
             143.89,67.73 142.85,66.16 141.57,63.00
             138.51,55.45 138.27,54.85 136.00,47.00 Z" />
</svg>
