<?xml version="1.0" encoding="UTF-8" standalone="no"?>
<!DOCTYPE svg PUBLIC "-//W3C//DTD SVG 20010904//EN"
              "http://www.w3.org/TR/2001/REC-SVG-20010904/DTD/svg10.dtd">

<svg xmlns="http://www.w3.org/2000/svg"
     width="5.16667in" height="5.44444in"
     viewBox="0 0 372 392">
  <path id="Auswahl"
        fill="none" stroke="black" stroke-width="1"
        d="M 106.00,39.00
           C 108.45,33.76 116.19,25.85 121.00,33.00
             127.23,32.81 127.36,35.23 130.19,39.96
             130.19,39.96 134.89,47.09 134.89,47.09
             136.01,49.55 135.26,60.03 134.89,63.00
             134.02,67.88 130.79,70.50 128.34,78.00
             120.65,101.54 117.29,108.48 114.96,134.00
             114.23,141.56 112.89,149.56 114.96,157.00
             118.68,150.15 129.30,141.51 136.00,137.48
             141.61,134.10 145.34,134.51 147.91,130.78
             152.65,123.91 149.22,110.23 159.00,108.00
             159.00,108.00 170.64,130.49 170.64,130.49
             173.04,132.85 176.84,133.02 180.00,133.61
             186.09,134.76 200.08,139.04 205.00,138.06
             213.61,136.36 227.46,125.17 235.78,130.17
             244.55,135.46 237.46,155.03 234.22,162.00
             234.22,162.00 227.63,177.00 227.63,177.00
             227.63,177.00 225.79,187.00 225.79,187.00
             224.66,192.29 221.23,204.17 219.13,209.00
             213.38,222.17 204.20,230.33 198.00,241.00
             208.37,245.03 215.32,255.30 223.00,263.00
             231.20,247.77 244.83,246.74 258.00,256.63
             263.69,260.91 267.54,264.29 266.89,272.00
             266.43,277.55 263.54,281.97 258.00,283.44
             254.47,284.38 251.32,283.37 248.17,285.60
             244.18,288.42 241.83,295.50 235.00,297.43
             226.85,299.73 214.39,290.13 216.07,303.00
             216.50,306.29 218.23,311.06 221.21,312.83
             223.72,314.31 228.09,313.96 231.00,314.04
             231.00,314.04 251.01,314.04 251.01,314.04
             251.01,314.04 263.00,314.91 263.00,314.91
             263.00,314.91 285.00,316.17 285.00,316.17
             297.73,317.44 322.89,323.38 335.00,327.69
             340.17,329.53 348.99,332.80 352.30,337.18
             357.81,344.47 352.49,351.62 345.00,354.15
             341.76,355.25 336.51,355.04 333.00,355.00
             333.00,355.00 323.00,354.09 323.00,354.09
             323.00,354.09 266.00,348.17 266.00,348.17
             266.00,348.17 239.00,347.00 239.00,347.00
             239.00,347.00 197.00,344.00 197.00,344.00
             197.00,344.00 174.00,344.00 174.00,344.00
             170.03,344.01 162.65,344.44 159.00,345.69
             154.88,347.11 149.28,352.32 137.00,356.33
             128.24,359.19 95.40,363.77 86.00,363.99
             80.30,364.11 60.47,362.09 56.18,359.15
             49.26,354.40 48.12,340.40 59.00,334.84
             63.96,332.30 69.68,332.31 75.00,331.00
             75.00,331.00 58.00,320.56 58.00,320.56
             48.99,314.23 39.20,302.86 34.27,293.00
             24.88,274.22 22.62,252.22 28.16,232.00
             28.16,232.00 41.26,197.00 41.26,197.00
             41.26,197.00 51.08,161.00 51.08,161.00
             58.66,139.08 64.46,128.61 76.58,109.00
             82.65,99.17 91.46,75.49 92.26,64.00
             92.26,64.00 92.26,56.00 92.26,56.00
             91.72,47.46 95.77,37.12 106.00,39.00 Z" />
</svg>
