<?xml version="1.0" encoding="UTF-8" standalone="no"?>
<!DOCTYPE svg PUBLIC "-//W3C//DTD SVG 20010904//EN"
              "http://www.w3.org/TR/2001/REC-SVG-20010904/DTD/svg10.dtd">

<svg xmlns="http://www.w3.org/2000/svg"
     width="5.98611in" height="3.36111in"
     viewBox="0 0 431 242">
  <path id="Auswahl"
        fill="none" stroke="black" stroke-width="1"
        d="M 239.00,90.00
           C 237.14,84.38 237.54,83.20 236.54,78.00
             234.73,68.56 228.98,48.50 221.96,42.21
             208.32,30.00 184.77,39.74 183.11,20.00
             182.23,9.59 191.23,6.60 200.00,7.09
             227.35,8.64 246.82,24.03 264.96,43.00
             271.36,49.69 280.91,64.13 288.01,67.68
             293.47,70.40 307.29,76.23 313.00,75.91
             315.78,75.75 320.33,75.21 321.98,72.69
             323.32,70.65 322.87,66.57 323.33,64.00
             323.97,60.42 326.22,56.32 327.84,53.00
             328.82,50.98 330.41,47.20 333.10,47.20
             335.43,47.20 338.42,50.40 339.90,52.00
             347.33,60.05 348.54,68.29 352.39,72.91
             352.39,72.91 360.00,80.04 360.00,80.04
             368.86,88.52 382.77,101.53 388.48,112.00
             393.79,121.72 395.12,134.12 395.00,145.00
             395.00,145.00 394.09,155.00 394.09,155.00
             392.51,178.00 390.45,194.23 373.91,212.00
             369.74,216.48 364.70,221.62 359.00,224.05
             348.35,228.58 325.33,230.27 314.00,227.53
             306.64,225.75 306.98,221.88 299.00,221.09
             299.00,221.09 234.00,214.84 234.00,214.84
             234.00,214.84 177.00,208.00 177.00,208.00
             177.00,208.00 160.00,208.00 160.00,208.00
             160.00,208.00 150.00,207.09 150.00,207.09
             150.00,207.09 123.00,204.84 123.00,204.84
             123.00,204.84 104.00,203.20 104.00,203.20
             101.58,202.98 97.24,202.89 95.00,203.20
             90.71,204.35 84.63,209.34 70.00,212.33
             62.52,213.87 54.27,213.42 53.20,204.00
             52.87,201.11 53.61,197.77 54.44,195.00
             58.25,182.28 66.25,182.66 77.00,179.57
             84.51,177.42 86.63,174.96 93.00,172.46
             102.58,168.71 108.92,169.73 116.82,160.98
             116.82,160.98 129.68,142.00 129.68,142.00
             131.48,139.67 135.45,136.00 135.41,133.04
             135.39,131.39 134.21,129.80 133.21,128.59
             128.04,122.33 120.71,121.09 113.00,121.00
             113.00,121.00 107.00,121.00 107.00,121.00
             81.50,121.30 64.37,150.37 38.00,151.71
             36.10,152.02 33.86,151.92 32.00,151.71
             24.14,149.80 22.39,143.38 26.70,137.01
             28.63,134.17 31.32,132.20 34.00,130.12
             34.00,130.12 58.00,110.04 58.00,110.04
             63.75,105.94 77.47,98.01 84.00,95.70
             84.00,95.70 97.00,92.00 97.00,92.00
             84.29,79.58 64.45,70.98 48.00,64.45
             41.15,61.73 27.61,59.87 24.72,52.98
             20.22,42.23 25.70,26.68 39.00,29.39
             43.02,30.21 50.20,34.68 54.00,36.85
             59.82,40.17 77.27,49.37 83.00,51.25
             93.23,54.60 106.12,54.08 117.00,55.17
             131.14,56.59 145.20,59.60 159.00,62.88
             159.00,62.88 217.00,81.63 217.00,81.63
             226.20,84.96 228.91,87.96 239.00,90.00 Z" />
</svg>
