<?xml version="1.0" encoding="UTF-8" standalone="no"?>
<!DOCTYPE svg PUBLIC "-//W3C//DTD SVG 20010904//EN"
              "http://www.w3.org/TR/2001/REC-SVG-20010904/DTD/svg10.dtd">

<svg xmlns="http://www.w3.org/2000/svg"
     width="5.31944in" height="4.84722in"
     viewBox="0 0 383 349">
  <path id="Auswahl"
        fill="none" stroke="black" stroke-width="1"
        d="M 115.00,133.00
           C 119.64,131.38 122.21,129.15 123.07,124.09
             125.34,110.83 122.34,108.98 128.09,93.00
             131.02,84.87 138.79,73.52 136.95,65.00
             136.95,65.00 131.58,37.00 131.58,37.00
             131.17,34.15 130.29,27.95 132.17,25.57
             135.03,21.98 140.62,26.48 143.00,28.44
             149.74,34.00 162.15,47.49 171.00,47.93
             171.00,47.93 191.00,46.00 191.00,46.00
             196.77,45.94 206.83,45.87 212.00,43.43
             219.62,39.83 226.71,29.44 234.00,25.22
             238.97,22.36 244.26,22.05 247.87,27.11
             248.90,28.55 249.68,30.35 250.29,32.00
             251.45,35.13 251.90,37.74 252.41,41.00
             253.09,45.29 253.05,48.69 253.00,53.00
             253.00,53.00 252.34,65.00 252.34,65.00
             252.34,65.00 265.00,105.00 265.00,105.00
             265.00,105.00 272.27,126.85 272.27,126.85
             275.15,131.41 286.47,131.00 292.00,132.37
             304.51,135.48 317.55,141.08 327.00,150.04
             351.93,173.70 358.03,209.52 351.20,242.00
             349.52,249.97 343.57,268.28 337.82,273.67
             330.04,280.97 310.61,282.55 300.00,284.00
             300.00,284.00 248.00,288.00 248.00,288.00
             248.00,288.00 232.00,289.00 232.00,289.00
             232.00,289.00 221.00,288.32 221.00,288.32
             221.00,288.32 180.00,290.17 180.00,290.17
             169.69,291.28 154.25,298.18 145.00,297.48
             145.00,297.48 136.00,296.22 136.00,296.22
             136.00,296.22 128.00,296.22 128.00,296.22
             122.86,296.07 114.13,296.39 110.28,292.69
             104.99,287.62 109.19,280.64 102.94,279.62
             101.39,279.09 98.67,279.67 97.00,279.62
             80.59,281.44 84.15,282.14 70.00,285.84
             62.31,287.86 58.48,287.08 51.00,287.00
             51.00,287.00 44.00,287.00 44.00,287.00
             39.14,286.99 27.09,286.10 23.07,283.84
             15.60,279.68 17.35,269.34 23.07,264.55
             29.30,259.41 38.55,258.52 46.00,256.51
             54.34,254.26 56.56,251.47 67.00,250.00
             66.11,247.88 63.41,239.21 62.11,238.40
             61.08,237.76 58.30,237.83 56.99,237.69
             50.53,237.00 37.33,235.66 39.33,226.00
             40.57,220.02 47.87,216.74 53.00,214.81
             66.66,209.68 83.93,211.84 98.00,213.87
             101.64,214.39 112.92,217.60 115.42,215.36
             117.68,213.34 118.95,203.31 119.66,200.00
             120.78,194.75 122.25,187.87 124.34,183.00
             126.85,177.13 133.00,165.96 133.63,160.00
             134.20,154.60 131.87,153.19 127.05,154.00
             127.13,152.23 127.62,148.71 127.05,147.14
             125.18,141.42 117.72,144.53 114.00,146.00
             114.00,146.00 115.00,133.00 115.00,133.00 Z" />
</svg>
