<?xml version="1.0" encoding="UTF-8" standalone="no"?>
<!DOCTYPE svg PUBLIC "-//W3C//DTD SVG 20010904//EN"
              "http://www.w3.org/TR/2001/REC-SVG-20010904/DTD/svg10.dtd">

<svg xmlns="http://www.w3.org/2000/svg"
     width="6.27778in" height="4.29167in"
     viewBox="0 0 452 309">
  <path id="Auswahl"
        fill="none" stroke="black" stroke-width="1"
        d="M 384.00,106.00
           C 386.49,114.75 383.33,127.76 387.44,141.00
             389.69,148.22 394.10,153.85 402.00,154.16
             402.00,154.16 409.00,154.16 409.00,154.16
             411.33,154.01 413.71,153.98 416.00,154.16
             429.69,157.51 420.45,174.46 415.33,181.00
             415.33,181.00 411.17,186.00 411.17,186.00
             409.29,188.34 408.65,189.37 407.26,192.00
             398.97,207.67 394.06,220.13 381.71,233.99
             372.03,244.85 354.45,255.46 341.00,261.13
             330.27,265.64 322.96,265.34 312.00,266.09
             312.00,266.09 300.00,267.04 300.00,267.04
             300.00,267.04 289.00,267.04 289.00,267.04
             289.00,267.04 279.00,268.00 279.00,268.00
             279.00,268.00 262.00,268.00 262.00,268.00
             262.00,268.00 245.00,269.00 245.00,269.00
             245.00,269.00 224.00,269.00 224.00,269.00
             215.30,268.99 207.49,266.52 199.00,265.30
             191.70,264.25 184.36,264.08 177.00,264.00
             177.00,264.00 162.00,263.00 162.00,263.00
             162.00,263.00 139.00,264.00 139.00,264.00
             139.00,264.00 102.00,264.00 102.00,264.00
             89.32,263.98 75.35,262.85 66.21,252.95
             66.21,252.95 52.37,232.60 52.37,232.60
             49.47,230.07 45.41,231.60 41.00,230.44
             32.26,228.15 29.71,221.23 30.04,213.00
             30.13,210.68 30.46,208.19 31.26,206.00
             35.07,195.53 45.71,191.86 56.00,192.75
             56.00,192.75 65.00,192.75 65.00,192.75
             72.38,192.78 78.57,188.29 85.00,185.10
             88.10,183.57 92.03,181.96 93.83,178.82
             95.58,175.75 94.23,170.46 98.45,160.00
             98.45,160.00 109.53,137.00 109.53,137.00
             113.27,127.29 109.58,125.75 104.36,118.00
             99.30,110.49 90.37,98.09 91.17,89.00
             91.17,89.00 100.33,45.00 100.33,45.00
             102.08,36.50 99.03,32.79 105.20,25.00
             105.20,25.00 109.19,20.00 109.19,20.00
             111.99,15.71 112.56,10.48 122.00,11.06
             124.54,11.21 126.63,11.72 128.50,13.57
             132.39,17.40 133.11,27.73 132.99,33.00
             132.99,33.00 127.00,71.00 127.00,71.00
             126.98,73.17 126.86,77.03 127.60,78.98
             130.91,87.70 144.45,87.00 152.00,88.32
             159.51,89.64 170.87,93.71 177.00,98.16
             183.83,103.12 189.89,109.43 193.73,117.00
             195.59,120.68 197.43,129.04 200.28,130.83
             202.94,132.50 208.69,131.84 212.00,132.17
             212.00,132.17 231.00,136.33 231.00,136.33
             234.04,136.96 237.79,138.84 240.58,136.33
             242.76,134.69 245.14,127.01 246.43,124.00
             249.72,116.29 253.35,110.19 259.09,104.00
             270.39,91.81 283.66,85.58 290.69,70.00
             292.47,66.04 295.09,58.25 295.70,54.00
             296.66,47.32 294.46,41.46 301.11,35.33
             307.05,29.85 314.44,26.31 322.00,30.48
             324.53,31.88 326.44,33.43 327.84,36.02
             329.56,39.20 330.15,45.38 329.96,49.00
             329.70,53.92 327.47,57.34 326.15,62.00
             326.15,62.00 321.58,78.00 321.58,78.00
             321.58,78.00 306.35,114.00 306.35,114.00
             304.05,120.92 301.86,128.23 308.06,133.77
             309.47,135.04 311.12,136.12 313.00,136.53
             317.39,137.48 322.45,133.88 326.00,131.68
             331.75,128.13 338.00,124.69 345.00,125.18
             348.69,125.44 361.19,127.28 363.91,125.94
             370.37,122.76 374.29,109.39 384.00,106.00 Z" />
</svg>
